<?xml version="1.0" encoding="UTF-8"?>
<svg id="Layer_2" data-name="Layer 2" xmlns="http://www.w3.org/2000/svg" viewBox="0 0 326.68 138.56">
  <defs>
    <style>
      .cls-1 {
        fill: #f0505a;
      }

      .cls-1, .cls-2 {
        stroke-width: 0px;
      }

      .cls-2 {
        fill: #010101;
      }
    </style>
  </defs>
  <g id="Layer_1-2" data-name="Layer 1">
    <g>
      <path class="cls-1" d="M179.74,60.71c7-1.86,13.98-3.72,21.02-5.59-6.01,4.82-11.98,9.61-17.95,14.4,3.63,4.6,10.84,13.79,10.83,13.8-6.12-1.58-12.24-3.16-18.38-4.74-3.37,6.45-10.06,19.3-10.08,19.31-.15-6.36-.35-12.7-.5-19.08-6.99,1.86-20.92,5.54-20.93,5.53,5.95-4.78,11.91-9.55,17.89-14.35-3.63-4.59-10.83-13.77-10.82-13.78,6.11,1.58,12.21,3.15,18.34,4.73,3.37-6.45,10.11-19.31,10.13-19.31.15,6.36.31,12.71.46,19.09h0Z"/>
      <g>
        <path class="cls-2" d="M213.15,42.08L226.16.79h-105.32s1.18-.01,1.18-.01L80.75.03l-1.74-.03C37.94,0,0,37.75,0,87.57c0,31.53,21.21,50.99,49.82,50.99,38.74,0,54.68-37.75,54.68-37.75-12.06,18.68-27.05,32.69-46.71,32.69-24.91,0-36.78-21.02-36.78-47.09C21.01,43.4,46.51,1.95,75.89,1.95c24.33,0,30.55,19.25,32.1,44.35l11.55-36.61c1.88-6.29,2.82-6.43,7.48-6.29,1.83.05,8.28,0,8.33,0,6.63,0,4.62,3.86,2.56,11.59l-30.4,109.4c-1.2,4.6-3.4,8-8.4,9.8-3.4,1.2-13.8,3.2-17.2,3.2h63.8c-3.8-.2-12-2.8-15-4-4.4-2-4.6-6-3.2-10h.01s11.86-42.48,11.86-42.48l14.22-11.4-8.14-10.36,14.02-50.19c1.09-3.89,4.63-5.54,8.67-5.54h19.77c6.4,0,4.22.24,8.86.24,21.17,0,16.56,26.66,16.37,38.42Z"/>
        <path class="cls-2" d="M280.55,1.95c24.33,0,33.48,22.18,35.03,47.29L326.68.78,285.42.03l-1.75-.03c-41.06,0-79.01,37.75-79.01,87.57,0,31.53,21.21,50.99,49.82,50.99,37.66,0,54.68-37.75,54.68-37.75-12.06,18.68-27.05,32.69-46.71,32.69-24.91,0-36.78-21.02-36.78-47.09,0-43.01,25.5-84.46,54.88-84.46Z"/>
      </g>
    </g>
  </g>
</svg>