<svg xmlns="http://www.w3.org/2000/svg" viewBox="143.2 41.1 58 57.5">
  <!-- Chicago star from CFC Primary - Black + Red.svg, J2 Chicago fill -->
  <path fill="#f44d59" d="M179.74,60.71c7-1.86,13.98-3.72,21.02-5.59-6.01,4.82-11.98,9.61-17.95,14.4,3.63,4.6,10.84,13.79,10.83,13.8-6.12-1.58-12.24-3.16-18.38-4.74-3.37,6.45-10.06,19.3-10.08,19.31-.15-6.36-.35-12.7-.5-19.08-6.99,1.86-20.92,5.54-20.93,5.53,5.95-4.78,11.91-9.55,17.89-14.35-3.63-4.59-10.83-13.77-10.82-13.78,6.11,1.58,12.21,3.15,18.34,4.73,3.37-6.45,10.11-19.31,10.13-19.31.15,6.36.31,12.71.46,19.09h0Z" />
</svg>
